<svg xmlns="http://www.w3.org/2000/svg" width="1200" height="300" viewBox="0 0 1200 300" role="img" aria-label="Cronus Capital - autonomous oracle agent on Arc">
  <defs>
    <linearGradient id="bg" x1="0" y1="0" x2="1" y2="1">
      <stop offset="0" stop-color="#0a0e1a"/>
      <stop offset="1" stop-color="#0e1730"/>
    </linearGradient>
    <linearGradient id="gold" x1="0" y1="0" x2="1" y2="0">
      <stop offset="0" stop-color="#f0c66a"/>
      <stop offset="1" stop-color="#e0a23a"/>
    </linearGradient>
  </defs>
  <rect width="1200" height="300" rx="18" fill="url(#bg)"/>
  <rect x="1" y="1" width="1198" height="298" rx="17" fill="none" stroke="#1d2a44" stroke-width="2"/>
  <g transform="translate(70,90)" fill="none" stroke="url(#gold)" stroke-width="4" stroke-linecap="round">
    <path d="M0 30 Q40 -8 80 30 Q40 68 0 30 Z"/>
    <circle cx="40" cy="30" r="13" fill="#f0c66a" stroke="none"/>
    <circle cx="40" cy="30" r="5" fill="#0a0e1a" stroke="none"/>
    <path d="M80 30 q14 4 16 22"/>
  </g>
  <text x="180" y="110" font-family="Georgia, 'Times New Roman', serif" font-size="58" font-weight="700" fill="#f5f7fb" letter-spacing="2">CRONUS CAPITAL</text>
  <text x="182" y="150" font-family="Verdana, Geneva, sans-serif" font-size="22" fill="#9aa6bd">Autonomous prediction-market oracle agent on Arc</text>
  <g font-family="Verdana, Geneva, sans-serif" font-size="17" font-weight="700">
    <g transform="translate(182,185)">
      <rect width="200" height="40" rx="20" fill="#10203a" stroke="#27406b"/>
      <text x="100" y="26" text-anchor="middle" fill="#3fd0c9">USDC-native gas</text>
    </g>
    <g transform="translate(394,185)">
      <rect width="180" height="40" rx="20" fill="#10203a" stroke="#27406b"/>
      <text x="90" y="26" text-anchor="middle" fill="#f0c66a">x402 monetized</text>
    </g>
    <g transform="translate(586,185)">
      <rect width="200" height="40" rx="20" fill="#10203a" stroke="#27406b"/>
      <text x="100" y="26" text-anchor="middle" fill="#3fd0c9">on-chain receipts</text>
    </g>
    <g transform="translate(798,185)">
      <rect width="170" height="40" rx="20" fill="#10203a" stroke="#27406b"/>
      <text x="85" y="26" text-anchor="middle" fill="#f0c66a">non-custodial</text>
    </g>
  </g>
  <g transform="translate(1010,150)" fill="none" stroke-width="6" stroke-linecap="round">
    <circle cx="0" cy="0" r="80" stroke="#16243f"/>
    <path d="M0 -80 A80 80 0 0 1 69 40" stroke="#3fd0c9"/>
    <path d="M69 40 A80 80 0 0 1 -69 40" stroke="#f0c66a"/>
    <path d="M-69 40 A80 80 0 0 1 0 -80" stroke="#7c5cff"/>
    <text x="0" y="-4" text-anchor="middle" font-family="Verdana, Geneva, sans-serif" font-size="15" font-weight="700" fill="#9aa6bd" stroke="none">earn</text>
    <text x="0" y="16" text-anchor="middle" font-family="Verdana, Geneva, sans-serif" font-size="15" font-weight="700" fill="#9aa6bd" stroke="none">spend</text>
    <text x="0" y="36" text-anchor="middle" font-family="Verdana, Geneva, sans-serif" font-size="14" font-weight="700" fill="#9aa6bd" stroke="none">settle</text>
  </g>
</svg>
